<?xml version="1.0" standalone="no"?>
<!DOCTYPE svg PUBLIC "-//W3C//DTD SVG 20010904//EN"
 "http://www.w3.org/TR/2001/REC-SVG-20010904/DTD/svg10.dtd">
<svg version="1.0" xmlns="http://www.w3.org/2000/svg"
 width="700.000000pt" height="700.000000pt" viewBox="0 0 700.000000 700.000000"
 preserveAspectRatio="xMidYMid meet">
<metadata>
Created by potrace 1.11, written by Peter Selinger 2001-2013
</metadata>
<g transform="translate(0.000000,700.000000) scale(0.100000,-0.100000)"
fill="#000000" stroke="none">
<path d="M5369 5836 c-2 -2 -34 -7 -71 -10 -37 -4 -77 -9 -90 -11 -22 -4 -226
-30 -318 -41 -25 -3 -97 -12 -160 -20 -63 -8 -133 -17 -155 -20 -22 -2 -51 -7
-65 -9 -14 -2 -45 -6 -70 -9 -25 -3 -115 -14 -200 -25 -220 -29 -240 -31 -284
-36 -21 -3 -55 -7 -75 -9 -20 -3 -74 -10 -121 -16 -144 -19 -154 -20 -185 -25
-16 -2 -52 -7 -80 -10 -74 -9 -206 -26 -235 -30 -14 -2 -47 -6 -75 -10 -27 -3
-63 -7 -80 -9 -16 -3 -52 -7 -80 -11 -57 -7 -89 -11 -160 -20 -27 -3 -63 -8
-80 -10 -16 -2 -52 -7 -80 -10 -27 -4 -61 -8 -75 -11 -14 -2 -52 -6 -85 -10
-33 -3 -67 -7 -75 -9 -8 -2 -55 -9 -105 -15 -49 -6 -101 -13 -115 -15 -14 -2
-52 -6 -85 -10 -33 -3 -69 -8 -80 -10 -11 -2 -42 -7 -70 -10 -27 -3 -86 -10
-130 -16 -44 -5 -98 -12 -120 -15 -22 -2 -51 -7 -65 -9 -14 -2 -46 -7 -72 -10
-212 -24 -255 -32 -282 -52 -29 -21 -16 5 -173 -348 -69 -154 -138 -307 -153
-340 -50 -105 -47 -160 8 -221 10 -11 56 -68 102 -129 47 -60 90 -117 97 -125
7 -8 214 -275 460 -592 1572 -2024 1659 -2135 1681 -2163 10 -11 37 -47 62
-80 25 -33 62 -78 82 -100 l37 -40 83 1 c46 1 166 15 268 32 102 17 201 33
220 36 19 3 53 8 75 11 138 21 211 36 232 51 14 8 36 41 49 72 14 31 29 66 34
77 5 11 59 139 120 285 62 146 120 283 130 305 10 22 41 96 70 165 28 69 58
139 66 157 13 30 352 829 505 1192 38 90 76 180 85 200 9 20 20 45 24 56 4 11
17 40 28 65 11 25 32 74 47 110 15 36 119 283 232 549 194 457 205 486 201
535 -4 49 -16 67 -259 398 -183 251 -263 352 -286 363 -28 14 -94 21 -104 11z
m38 -289 c21 -28 41 -56 46 -62 4 -5 44 -59 88 -120 43 -60 85 -117 92 -125
31 -37 58 -80 50 -81 -4 0 -15 -2 -24 -4 -8 -1 -42 -6 -75 -9 -32 -4 -72 -9
-89 -11 -16 -3 -102 -14 -190 -25 -147 -18 -208 -26 -275 -35 -14 -2 -50 -6
-80 -9 -30 -3 -64 -8 -75 -10 -11 -2 -47 -7 -80 -10 -33 -4 -71 -8 -85 -11
-14 -2 -50 -7 -80 -10 -30 -3 -66 -7 -80 -9 -14 -3 -45 -7 -70 -10 -109 -13
-467 -57 -490 -61 -25 -3 -91 -12 -165 -20 -22 -3 -56 -7 -75 -10 -19 -2 -91
-11 -160 -20 -69 -9 -141 -18 -160 -20 -133 -17 -693 -88 -730 -92 -88 -9
-140 -56 -140 -125 0 -23 38 -92 74 -134 9 -10 79 -102 156 -204 78 -102 146
-192 153 -200 7 -8 23 -31 37 -50 14 -19 32 -44 42 -55 9 -11 129 -168 267
-350 138 -181 258 -338 266 -347 48 -58 50 -46 -46 -272 -48 -115 -90 -210
-92 -213 -3 -2 -84 99 -181 224 -98 125 -189 243 -203 261 -30 38 -166 213
-543 699 -140 180 -389 500 -552 711 -263 339 -319 415 -290 399 4 -3 49 1
101 9 51 7 121 16 155 19 33 4 68 9 77 10 9 2 40 6 70 10 30 3 65 8 79 10 14
3 48 7 75 10 53 6 192 24 235 30 101 14 162 22 243 30 32 4 67 8 79 10 11 3
46 7 77 11 31 3 63 8 72 9 9 2 40 6 70 9 30 4 86 11 124 16 39 5 94 12 124 16
30 3 62 7 72 9 10 2 44 6 76 10 32 3 87 10 123 15 36 5 88 12 115 15 28 3 61
8 75 10 14 2 43 7 65 9 96 11 151 19 170 22 11 2 44 6 75 9 31 3 65 7 77 9 12
3 46 7 75 10 29 4 62 8 73 10 11 2 49 7 85 11 36 4 73 9 82 10 9 2 43 6 75 10
32 3 69 7 83 10 27 5 63 9 150 20 30 4 66 8 80 10 14 2 138 18 275 35 138 17
254 32 259 33 41 12 56 5 93 -46z m-3854 -704 c59 -76 193 -248 298 -383 104
-135 198 -256 207 -269 9 -13 22 -28 27 -35 9 -9 60 -75 87 -111 5 -5 36 -46
71 -90 34 -44 92 -118 127 -165 36 -47 67 -87 70 -90 3 -3 44 -54 90 -115 47
-60 90 -117 97 -125 7 -8 48 -62 93 -120 44 -58 91 -118 104 -135 13 -16 54
-68 90 -115 37 -47 75 -96 86 -110 50 -64 261 -336 310 -400 60 -78 91 -100
142 -100 65 0 89 34 189 275 50 121 115 276 144 345 29 69 135 321 235 560
100 239 184 436 185 438 5 6 217 34 360 47 33 3 72 8 88 11 15 3 27 1 27 -4 0
-9 -19 -57 -45 -117 -8 -16 -44 -102 -80 -190 -37 -88 -74 -176 -82 -195 -8
-19 -20 -46 -25 -60 -6 -14 -14 -32 -18 -41 -5 -9 -34 -78 -65 -154 -31 -77
-65 -157 -75 -179 -10 -23 -125 -295 -255 -606 -131 -311 -250 -594 -265 -630
-16 -36 -65 -153 -110 -260 -45 -107 -85 -199 -89 -203 -4 -4 -16 5 -26 20
-10 15 -23 33 -29 39 -6 7 -68 85 -138 175 -69 90 -515 664 -990 1275 -474
611 -874 1126 -888 1144 -13 17 -79 102 -146 188 l-122 155 18 41 c16 37 109
246 166 374 13 28 25 52 27 52 2 0 52 -62 110 -137z m4177 83 c0 -3 -38 -94
-84 -203 -240 -568 -340 -802 -356 -838 -10 -22 -34 -80 -55 -130 -20 -49 -43
-103 -50 -120 -8 -16 -46 -106 -85 -200 -71 -167 -102 -240 -120 -280 -5 -11
-39 -92 -76 -180 -37 -88 -75 -178 -85 -200 -10 -22 -30 -69 -44 -105 -27 -64
-291 -687 -325 -765 -9 -22 -50 -119 -90 -215 -41 -96 -79 -180 -84 -187 -6
-6 -76 -21 -156 -33 -80 -12 -156 -23 -170 -25 -14 -3 -43 -7 -65 -10 -22 -3
-52 -8 -67 -11 -16 -3 -28 -3 -28 -1 0 5 51 128 75 182 16 35 168 396 200 475
12 30 79 189 149 353 69 164 126 300 126 303 0 2 11 27 24 56 14 29 48 109 76
178 28 69 58 140 66 158 41 92 107 250 294 697 7 17 18 44 25 60 7 17 25 59
40 95 15 36 35 83 45 105 41 90 80 197 80 218 0 33 -36 86 -68 98 -26 11 -95
13 -139 5 -12 -3 -53 -8 -90 -11 -37 -4 -75 -8 -83 -10 -8 -3 -42 -7 -75 -10
-33 -3 -76 -7 -95 -10 -19 -2 -60 -7 -90 -10 -30 -4 -66 -8 -80 -10 -14 -2
-54 -6 -90 -10 -36 -3 -76 -8 -90 -10 -14 -2 -47 -7 -75 -10 -27 -3 -72 -8
-100 -11 -55 -7 -73 -9 -160 -18 -33 -4 -76 -9 -95 -11 -19 -2 -57 -7 -85 -10
-27 -3 -66 -8 -85 -10 -19 -3 -60 -7 -90 -11 -30 -3 -66 -7 -80 -9 -14 -2 -56
-6 -95 -10 -67 -6 -71 -5 -85 18 -8 13 -25 37 -38 53 -109 139 -202 267 -197
272 6 7 5 6 90 16 66 8 96 12 170 22 28 3 61 7 75 9 44 5 134 16 160 20 14 2
50 7 80 11 30 3 66 7 80 9 14 2 52 6 85 10 33 4 67 8 75 10 9 2 43 6 75 10 33
4 71 8 85 10 46 7 308 40 400 50 72 9 153 19 229 29 69 10 426 55 481 61 30 4
66 8 80 10 14 2 45 6 70 9 25 3 135 17 245 31 110 15 227 29 260 32 33 3 62 7
64 9 6 5 21 5 21 0z m-1811 -903 c-12 -27 -41 -95 -64 -153 -24 -58 -68 -163
-98 -233 l-55 -129 -165 219 c-92 120 -175 229 -186 243 -11 13 -19 26 -17 27
4 4 239 35 375 49 35 4 87 10 115 14 28 4 65 8 83 9 l32 1 -20 -47z"/>
</g>
</svg>
